<svg width="16" height="16" viewBox="0 0 16 16" fill="none" xmlns="http://www.w3.org/2000/svg">
<path fill-rule="evenodd" clip-rule="evenodd" d="M7.04 0C7.74692 0 8.32 0.573076 8.32 1.28V6.4H14.72C15.4269 6.4 16 6.97308 16 7.68V14.72C16 15.4269 15.4269 16 14.72 16H4.48C3.77308 16 3.2 15.4269 3.2 14.72V12.8H1.28C0.573078 12.8 0 12.2269 0 11.52V1.28C0 0.573076 0.573078 0 1.28 0H7.04ZM3.2 10.24H1.28V2.56H7.04V6.4H4.48C3.77308 6.4 3.2 6.97308 3.2 7.68V10.24ZM9.6 11.904L14.72 7.68H4.48L9.6 11.904Z" fill="#222222"/>
</svg>
