<svg width="12" height="12" viewBox="0 0 12 12" fill="none" xmlns="http://www.w3.org/2000/svg">
<path d="M3.03898 11.9853L3.26017 11.9237C3.47291 11.8645 3.59699 11.6442 3.53765 11.4319L1.00958 2.40399C0.973927 2.27665 0.889017 2.1685 0.77338 2.10366C0.657977 2.03882 0.52123 2.0222 0.39363 2.05778L0.365014 2.06574C0.0994938 2.13994 -0.0560183 2.41522 0.0183367 2.68044L2.54617 11.7083C2.60575 11.9206 2.82623 12.0445 3.03898 11.9853Z" fill="#7B31D9"/>
<path d="M11.9403 5.67647C11.1386 5.27759 10.3972 4.76846 9.73711 4.16383C9.68176 4.11327 9.65994 4.03532 9.68129 3.96345C10.0083 2.72914 10.251 1.47399 10.4079 0.206671C10.4328 -0.00400382 10.3188 -0.0660356 10.1987 0.0786273C7.84282 2.89089 3.76573 -0.435885 1.33899 2.12029C1.36807 2.17483 1.39106 2.23218 1.40725 2.29187L3.04704 8.15212C5.478 5.62708 9.54032 8.93326 11.8925 6.12708C12.0128 5.98218 12.0355 5.71767 11.9403 5.67647Z" fill="#7B31D9"/>
</svg>
