<svg width="13" height="17" viewBox="0 0 13 17" fill="none" xmlns="http://www.w3.org/2000/svg">
<path d="M11.9259 0.00994501C11.9087 0.00994501 11.892 0.0104253 11.8747 0.0109057H1.12498C0.532105 -0.0169524 0.0287107 0.443186 0.000957024 1.03877C0.000478512 1.05606 0 1.07287 0 1.09017V16.6484L1.44989 15.2935C1.69393 15.0816 2.05569 15.0816 2.29973 15.2935L4.1999 17L6.07471 15.2935C6.32258 15.0917 6.67715 15.0917 6.92454 15.2935L8.79935 17L10.6995 15.2935C10.9436 15.0816 11.3053 15.0816 11.5494 15.2935L12.9993 16.6484V1.09017C13.0007 0.494099 12.5198 0.0104253 11.9259 0.00994501ZM3.39983 3.77511H6.59963C6.80683 3.77511 6.97479 3.94369 6.97479 4.15167C6.97479 4.35964 6.80683 4.52823 6.59963 4.52823H3.39983C3.19263 4.52823 3.02467 4.35964 3.02467 4.15167C3.02515 3.94369 3.19311 3.77511 3.39983 3.77511ZM9.5999 11.0523H3.39983C3.19263 11.0523 3.02467 10.8837 3.02467 10.6757C3.02467 10.4678 3.19263 10.2992 3.39983 10.2992H9.5999C9.8071 10.2992 9.97506 10.4678 9.97506 10.6757C9.97506 10.8837 9.8071 11.0523 9.5999 11.0523ZM9.5999 7.79003H3.39983C3.19263 7.79003 3.02467 7.62144 3.02467 7.41346C3.02467 7.20549 3.19263 7.0369 3.39983 7.0369H9.5999C9.8071 7.0369 9.97506 7.20549 9.97506 7.41346C9.97506 7.62144 9.8071 7.79003 9.5999 7.79003Z" fill="#222222"/>
</svg>
