<svg width="16" height="16" viewBox="0 0 16 16" fill="none" xmlns="http://www.w3.org/2000/svg">
<path d="M7.99844 15.9969C12.4159 15.9969 15.9969 12.4159 15.9969 7.99844C15.9969 3.58102 12.4159 0 7.99844 0C3.58102 0 0 3.58102 0 7.99844C0 12.4159 3.58102 15.9969 7.99844 15.9969Z" fill="#F0F0F0"/>
<path d="M0.275391 10.0856C0.7378 11.804 1.75948 13.2912 3.13108 14.3442V10.0856H0.275391Z" fill="#D80027"/>
<path d="M7.30212 15.9657C7.5302 15.9845 7.76453 15.997 7.99886 15.997C11.695 15.997 14.8038 13.4912 15.7224 10.0856H7.30212V15.9657Z" fill="#D80027"/>
<path d="M15.7224 5.91135C14.8038 2.50576 11.695 0 7.99886 0C7.76453 0 7.53333 0.00937317 7.30212 0.0312439V5.91135H15.7224Z" fill="#D80027"/>
<path d="M3.13108 1.653C1.75948 2.70592 0.7378 4.19625 0.275391 5.91154H3.13108V1.653Z" fill="#D80027"/>
<path d="M15.9281 6.95473H6.25815V0.19043C5.51767 0.352898 4.81781 0.618471 4.17106 0.971527V6.95473H0.0687366C0.0218707 7.29529 0 7.64522 0 7.99828C0 8.35134 0.0218707 8.70127 0.0687366 9.04183H4.17419V15.025C4.82093 15.3781 5.5208 15.6437 6.26128 15.8061V9.04183H15.9313C15.975 8.70127 16 8.35134 16 7.99828C16 7.64522 15.975 7.29529 15.9281 6.95473Z" fill="#0052B4"/>
</svg>
