<svg width="32" height="9" viewBox="0 0 32 9" fill="none" xmlns="http://www.w3.org/2000/svg">
<path d="M6.61738 6.14646C7.13952 5.48521 7.41658 4.66136 7.41658 3.81583C7.41658 1.74537 5.75425 0.0651557 3.70829 0.0651557C1.66234 0.0651557 1.30078e-06 1.74537 1.30078e-06 3.81583C1.30078e-06 5.88629 1.66234 7.56651 3.70829 7.56651C4.34765 7.56651 4.9657 7.40391 5.50916 7.08954L6.31901 8.05431L7.41658 7.11123L6.61738 6.14646ZM5.95671 3.81583C5.95671 4.22776 5.85015 4.63968 5.64769 4.98656L4.95505 4.16271L3.85748 5.10581L4.56077 5.94049C4.29437 6.04889 4.00666 6.10309 3.71894 6.10309C2.48285 6.10309 1.48118 5.07329 1.48118 3.80499C1.48118 2.5367 2.48285 1.50689 3.71894 1.50689C4.95504 1.51773 5.95671 2.54754 5.95671 3.81583Z" fill="#4FDEBB"/>
<path d="M10.0168 6.00545V0.151794H8.55688V7.45803H13.6291V6.00545H10.0168Z" fill="#4FDEBB"/>
<path d="M16.5169 0.151794H15.057V7.45803H16.5169V0.151794Z" fill="#4FDEBB"/>
<path d="M22.239 5.10682C23.1447 4.69489 23.7415 3.76264 23.7415 2.74367C23.7415 1.32362 22.6013 0.163727 21.2053 0.163727H18.2643V7.46996H19.7242V5.33446H20.6406L22.0365 7.46996H23.7734L22.239 5.10682ZM22.2816 2.74367C22.2816 3.3724 21.8021 3.87104 21.2053 3.87104H19.7348V1.60546H21.2053C21.8021 1.6163 22.2816 2.11495 22.2816 2.74367Z" fill="#4FDEBB"/>
<path d="M28.2918 0.0547485C26.2458 0.0547485 24.5835 1.73497 24.5835 3.80543C24.5835 5.87589 26.2458 7.5561 28.2918 7.5561C30.3377 7.5561 32.0001 5.87589 32.0001 3.80543C32.0001 1.73497 30.3377 0.0547485 28.2918 0.0547485ZM30.5295 3.80543C30.5295 5.07372 29.5279 6.10353 28.2918 6.10353C27.0557 6.10353 26.054 5.07372 26.054 3.80543C26.054 2.53713 27.0557 1.50732 28.2918 1.50732C29.5279 1.50732 30.5295 2.53713 30.5295 3.80543Z" fill="#4FDEBB"/>
</svg>
