<svg width="17" height="13" viewBox="0 0 17 13" fill="none" xmlns="http://www.w3.org/2000/svg">
<path fill-rule="evenodd" clip-rule="evenodd" d="M11.76 0H1.68C0.752165 0 0 0.764102 0 1.70667V11.0933H1.26C1.26 9.44384 2.57628 8.10667 4.2 8.10667C5.82372 8.10667 7.14 9.44384 7.14 11.0933H9.66C9.66 9.44384 10.9763 8.10667 12.6 8.10667C14.2237 8.10667 15.54 9.44384 15.54 11.0933H16.8V6.4L13.86 3.41333H11.76V0ZM4.2 9.38667C3.27216 9.38667 2.52 10.1508 2.52 11.0933C2.52 12.0359 3.27216 12.8 4.2 12.8C5.12783 12.8 5.88 12.0359 5.88 11.0933C5.88 10.1508 5.12783 9.38667 4.2 9.38667ZM10.92 11.0933C10.92 10.1508 11.6722 9.38667 12.6 9.38667C13.5278 9.38667 14.28 10.1508 14.28 11.0933C14.28 12.0359 13.5278 12.8 12.6 12.8C11.6722 12.8 10.92 12.0359 10.92 11.0933ZM11.76 4.52342V6.4H15.12L13.2732 4.52342H11.76Z" fill="#222222"/>
</svg>
