<svg width="16" height="16" viewBox="0 0 16 16" fill="none" xmlns="http://www.w3.org/2000/svg">
<path d="M8 16C12.4183 16 16 12.4183 16 8C16 3.58172 12.4183 0 8 0C3.58172 0 0 3.58172 0 8C0 12.4183 3.58172 16 8 16Z" fill="#FFDA44"/>
<path d="M6.25842 6.95623H15.9303C15.4209 3.03124 12.0647 0 7.99905 0C7.40217 0 6.82092 0.0656248 6.25842 0.190624V6.95623Z" fill="#0052B4"/>
<path d="M4.17461 6.95578V0.971375C1.97773 2.17138 0.402734 4.36826 0.0683594 6.95578H4.17461Z" fill="#0052B4"/>
<path d="M4.17461 9.04297H0.0683594C0.405859 11.6305 1.97773 13.8274 4.17461 15.0274V9.04297Z" fill="#0052B4"/>
<path d="M6.25977 9.04297V15.8086C6.81914 15.9336 7.40039 15.9992 8.00039 15.9992C12.066 15.9992 15.4223 12.968 15.9316 9.04297H6.25977Z" fill="#0052B4"/>
</svg>
