<svg width="35" height="12" viewBox="0 0 35 12" fill="none" xmlns="http://www.w3.org/2000/svg">
<path d="M12.838 8.40003V4.45923H11.4567V3.60003H15.1293V4.46403H13.748V8.40003H12.838Z" fill="black"/>
<path d="M15.0266 8.39992V4.91032H15.8713V5.46232C16.0906 4.99672 16.3659 4.91032 16.6599 4.91032H16.9913V5.78392H16.7019C16.2726 5.78392 15.8946 6.03832 15.8946 6.81112V8.39512H15.0266V8.39992Z" fill="black"/>
<path d="M17.4718 7.13751V4.91512H18.3398V6.92632C18.3398 7.37272 18.5638 7.67031 18.9605 7.67031C19.3431 7.67031 19.6278 7.37271 19.6278 6.93111V4.91032H20.4958V8.39991H19.6558V7.95831C19.4365 8.30871 19.1005 8.47671 18.6758 8.47671C17.9618 8.48151 17.4718 7.98711 17.4718 7.13751Z" fill="black"/>
<path d="M20.9584 7.4162L21.7237 7.23861C21.761 7.54581 22.0037 7.7522 22.4097 7.7522C22.741 7.7522 22.9324 7.60821 22.9324 7.42101C22.9324 7.26741 22.8437 7.16661 22.5217 7.08501L21.971 6.9554C21.327 6.8018 21.0237 6.48981 21.0237 5.90901C21.0237 5.31861 21.5044 4.84821 22.3817 4.84821C23.3104 4.84821 23.693 5.41461 23.7444 5.82261L22.979 5.99541C22.9417 5.77941 22.783 5.54901 22.363 5.54901C22.0877 5.54901 21.8824 5.67861 21.8824 5.86581C21.8824 6.02901 22.0037 6.12021 22.1904 6.16821L22.937 6.35061C23.5204 6.49461 23.8004 6.84501 23.8004 7.35861C23.8004 7.92021 23.357 8.4722 22.4144 8.4722C21.3877 8.4674 21.005 7.8434 20.9584 7.4162Z" fill="black"/>
<path d="M25.5873 8.39988C25.004 8.39988 24.6353 8.05908 24.6353 7.42068V5.68788H24.0707V4.91028H24.6353V4.11828L25.5033 3.86388V4.91508H26.194V5.69268H25.5033V7.27188C25.5033 7.52628 25.6247 7.62708 25.8767 7.62708H26.2547V8.39988H25.5873Z" fill="black"/>
<path d="M26.8242 8.40003V3.60003H27.6922V8.40003H26.8242Z" fill="black"/>
<path d="M30.5667 4.91512H31.5001L30.0674 9.65272H29.1341L29.5307 8.40472H29.0594L28.0934 4.91512H29.0267L29.7641 7.66072L30.5667 4.91512Z" fill="black"/>
<path d="M3.50024 5.70243H5.67958V3.91683L7.41558 5.70243L5.67958 7.48803V8.40003H7.78425V5.70243H9.72091V3.60003H3.50024V5.70243Z" fill="black"/>
</svg>
