<svg width="16" height="16" viewBox="0 0 16 16" fill="none" xmlns="http://www.w3.org/2000/svg">
<path d="M8 16C12.4183 16 16 12.4183 16 8C16 3.58172 12.4183 0 8 0C3.58172 0 0 3.58172 0 8C0 12.4183 3.58172 16 8 16Z" fill="#F0F0F0"/>
<path d="M1.65391 3.12943C1.02551 3.94702 0.551663 4.88936 0.275757 5.91308H4.43757L1.65391 3.12943Z" fill="#0052B4"/>
<path d="M15.7246 5.91308C15.4487 4.8894 14.9748 3.94705 14.3465 3.12946L11.5629 5.91308H15.7246Z" fill="#0052B4"/>
<path d="M0.275757 10.087C0.551694 11.1107 1.02554 12.053 1.65391 12.8706L4.43748 10.087H0.275757Z" fill="#0052B4"/>
<path d="M12.8708 1.65376C12.0532 1.02536 11.1109 0.551511 10.0872 0.275574V4.43736L12.8708 1.65376Z" fill="#0052B4"/>
<path d="M3.12976 14.3462C3.94735 14.9746 4.8897 15.4485 5.91339 15.7244V11.5627L3.12976 14.3462Z" fill="#0052B4"/>
<path d="M5.91335 0.275574C4.88967 0.551511 3.94732 1.02535 3.12976 1.65373L5.91335 4.43732V0.275574Z" fill="#0052B4"/>
<path d="M10.0872 15.7244C11.1108 15.4485 12.0532 14.9746 12.8708 14.3462L10.0872 11.5627V15.7244Z" fill="#0052B4"/>
<path d="M11.5629 10.087L14.3465 12.8706C14.9748 12.053 15.4487 11.1107 15.7246 10.087H11.5629Z" fill="#0052B4"/>
<path d="M15.9323 6.95653H9.04353H9.0435V0.0677188C8.70191 0.02325 8.35366 0 8 0C7.64628 0 7.29809 0.02325 6.95653 0.0677188V6.95647V6.9565H0.0677188C0.02325 7.29809 0 7.64634 0 8C0 8.35372 0.02325 8.70191 0.0677188 9.04347H6.95647H6.9565V15.9323C7.29809 15.9768 7.64628 16 8 16C8.35366 16 8.70191 15.9768 9.04347 15.9323V9.04353V9.0435H15.9323C15.9768 8.70191 16 8.35372 16 8C16 7.64634 15.9768 7.29809 15.9323 6.95653Z" fill="#D80027"/>
<path d="M10.0869 10.087L13.6568 13.6569C13.821 13.4928 13.9776 13.3212 14.127 13.1433L11.0707 10.087H10.0869V10.087Z" fill="#D80027"/>
<path d="M5.91304 10.087H5.91298L2.34314 13.6569C2.50726 13.8211 2.67886 13.9777 2.85673 14.1271L5.91304 11.0708V10.087Z" fill="#D80027"/>
<path d="M5.91305 5.91311V5.91305L2.34317 2.34314C2.17899 2.50726 2.02236 2.67886 1.87292 2.85673L4.92927 5.91308H5.91305V5.91311Z" fill="#D80027"/>
<path d="M10.0869 5.91311L13.6568 2.34317C13.4927 2.17899 13.3211 2.02236 13.1432 1.87296L10.0869 4.9293V5.91311V5.91311Z" fill="#D80027"/>
<g clip-path="url(#clip0)">
<path d="M5.89469 0H0V1.24844L5.89469 5.11062V0Z" fill="#00247D"/>
<path d="M0 4.26868V5.89461H2.48187L0 4.26868Z" fill="#00247D"/>
<path d="M0 10.1053V11.7312L2.48187 10.1053H0Z" fill="#00247D"/>
<path d="M16 1.24844V0H10.1053V5.11062L16 1.24844Z" fill="#00247D"/>
<path d="M15.9998 11.7312V10.1053H13.5179L15.9998 11.7312Z" fill="#00247D"/>
<path d="M10.1053 10.8893V16H16V14.7515L10.1053 10.8893Z" fill="#00247D"/>
<path d="M15.9998 5.89461V4.26868L13.5179 5.89461H15.9998Z" fill="#00247D"/>
<path d="M0 14.7515V16H5.89469V10.8893L0 14.7515Z" fill="#00247D"/>
<path d="M16.0002 14.7516V13.5038L10.7646 10.1053H12.3114L16.0002 12.4997V11.7313L13.5183 10.1053H16.0002V9.26315H9.26331V16H10.1055V10.8894L16.0002 14.7516Z" fill="#F5F5F5"/>
<path d="M0 9.26315V10.1053H2.48187L0 11.7313V12.9125L4.325 10.1053H5.87156L0 13.9166V14.7516L5.89469 10.8894V16H6.73688V9.26315H0Z" fill="#F5F5F5"/>
<path d="M6.73688 0H5.89469V5.11062L0 1.24844V2.615L5.0525 5.89469H3.50594L0 3.61906V4.26875L2.48187 5.89469H0V6.73688H6.73688V0Z" fill="#F5F5F5"/>
<path d="M16.0002 6.73688V5.89469H13.5183L16.0002 4.26875V3.07219L11.6521 5.89469H10.1055L16.0002 2.06813V1.24844L10.1055 5.11062V0H9.26331V6.73688H16.0002Z" fill="#F5F5F5"/>
<path d="M16 9.26313V6.73688H9.26313V0H6.73688V6.73688H0V9.26313H6.73688V16H9.26313V9.26313H16Z" fill="#CF142B"/>
<path d="M4.325 10.1053L0 12.9125V13.9165L5.87156 10.1053H4.325Z" fill="#CF142B"/>
<path d="M10.7644 10.1053L16 13.5037V12.4997L12.3113 10.1053H10.7644Z" fill="#CF142B"/>
<path d="M5.0525 5.89468L0 2.61499V3.61905L3.50594 5.89468H5.0525Z" fill="#CF142B"/>
<path d="M11.6519 5.89468L16 3.07218V2.06812L10.1053 5.89468H11.6519Z" fill="#CF142B"/>
</g>
<defs>
<clipPath id="clip0">
<rect width="16" height="16" rx="8" fill="white"/>
</clipPath>
</defs>
</svg>
