<svg width="12" height="12" viewBox="0 0 12 12" fill="none" xmlns="http://www.w3.org/2000/svg">
<g clip-path="url(#clip0)">
<path d="M3.03898 11.9853L3.26017 11.9237C3.47291 11.8645 3.59699 11.6442 3.53765 11.4319L1.00958 2.40402C0.973927 2.27668 0.889017 2.16853 0.77338 2.10369C0.657977 2.03885 0.52123 2.02223 0.39363 2.05781L0.365014 2.06577C0.0994938 2.13997 -0.0560183 2.41525 0.0183367 2.68047L2.54617 11.7083C2.60575 11.9206 2.82623 12.0445 3.03898 11.9853Z" fill="#7B31D9"/>
<path d="M11.9403 5.67649C11.1386 5.27761 10.3972 4.76848 9.73711 4.16385C9.68176 4.11329 9.65994 4.03534 9.68129 3.96347C10.0083 2.72916 10.251 1.47401 10.4079 0.206686C10.4328 -0.00398852 10.3188 -0.0660203 10.1987 0.0786426C7.84282 2.89091 3.76573 -0.43587 1.33899 2.12031C1.36807 2.17485 1.39106 2.2322 1.40725 2.29189L3.04704 8.15214C5.478 5.6271 9.54032 8.93328 11.8925 6.1271C12.0128 5.9822 12.0355 5.71769 11.9403 5.67649Z" fill="#7B31D9"/>
</g>
<defs>
<clipPath id="clip0">
<rect width="12" height="12" fill="white"/>
</clipPath>
</defs>
</svg>
